# xmcd CD database file
#
# Track frame offsets:
#	150
#	16487
#	36360
#	53062
#	74892
#	97492
#	102267
#	113612
#	132620
#	152117
#	172405
#	194102
#
# Disc length: 2800 seconds
#
# Revision: 0
# Processed by: cddbd v1.4PL0 Copyright (c) Steve Scherf et al.
# Submitted via: CDex 1.51
#
DISCID=c10aee0c
DTITLE=Searchlight Ensemble - Three Journeys Later
DYEAR=2003
DGENRE=Christmas
TTITLE0=Emmanuel
TTITLE1=We Three Kings
TTITLE2=Away
TTITLE3=Three Ships
TTITLE4=Have Yourself A Merry Little Christmas
TTITLE5=Calling All Nations
TTITLE6=Joy To The World
TTITLE7=Tidings Of Joy
TTITLE8=A Light In The Darkness
TTITLE9=Lulay
TTITLE10=The Messiah Has Come
TTITLE11=Carol Of The Bells
EXTD=YEAR: 2003
EXTT0=
EXTT1=
EXTT2=
EXTT3=
EXTT4=
EXTT5=
EXTT6=
EXTT7=
EXTT8=
EXTT9=
EXTT10=
EXTT11=
PLAYORDER=
